<mxfile host="app.diagrams.net" modified="2021-11-23T10:45:30.573Z" agent="5.0 (Windows NT 10.0; WOW64) AppleWebKit/537.36 (KHTML, like Gecko) Chrome/96.0.4664.45 Safari/537.36" etag="WBwI2qFWFGvaCjD-OTdO" version="15.8.4" type="github">
  <diagram id="xK_JGC7FKmiivz8dXlJs" name="Page-1">
    <mxGraphModel dx="1022" dy="475" grid="1" gridSize="10" guides="1" tooltips="1" connect="1" arrows="1" fold="1" page="1" pageScale="1" pageWidth="850" pageHeight="1100" math="0" shadow="0">
      <root>
        <mxCell id="0" />
        <mxCell id="1" parent="0" />
        <mxCell id="tzLTHpR25w6ST0jcA7H6-9" style="edgeStyle=orthogonalEdgeStyle;rounded=0;orthogonalLoop=1;jettySize=auto;html=1;entryX=0;entryY=0.533;entryDx=0;entryDy=0;entryPerimeter=0;" edge="1" parent="1" source="tzLTHpR25w6ST0jcA7H6-1" target="tzLTHpR25w6ST0jcA7H6-3">
          <mxGeometry relative="1" as="geometry" />
        </mxCell>
        <mxCell id="tzLTHpR25w6ST0jcA7H6-1" value="Actor" style="shape=umlActor;verticalLabelPosition=bottom;verticalAlign=top;html=1;outlineConnect=0;" vertex="1" parent="1">
          <mxGeometry x="140" y="150" width="30" height="60" as="geometry" />
        </mxCell>
        <mxCell id="tzLTHpR25w6ST0jcA7H6-3" value="" style="strokeWidth=1;shadow=0;dashed=0;align=center;html=1;shape=mxgraph.mockup.containers.browserWindow;rSize=0;strokeColor=#666666;strokeColor2=#008cff;strokeColor3=#c4c4c4;mainText=,;recursiveResize=0;" vertex="1" parent="1">
          <mxGeometry x="500" y="20" width="390" height="300" as="geometry" />
        </mxCell>
        <mxCell id="tzLTHpR25w6ST0jcA7H6-4" value="Page 1" style="strokeWidth=1;shadow=0;dashed=0;align=center;html=1;shape=mxgraph.mockup.containers.anchor;fontSize=17;fontColor=#666666;align=left;" vertex="1" parent="tzLTHpR25w6ST0jcA7H6-3">
          <mxGeometry x="60" y="12" width="110" height="26" as="geometry" />
        </mxCell>
        <mxCell id="tzLTHpR25w6ST0jcA7H6-5" value="https://www.draw.io" style="strokeWidth=1;shadow=0;dashed=0;align=center;html=1;shape=mxgraph.mockup.containers.anchor;rSize=0;fontSize=17;fontColor=#666666;align=left;" vertex="1" parent="tzLTHpR25w6ST0jcA7H6-3">
          <mxGeometry x="130" y="60" width="250" height="26" as="geometry" />
        </mxCell>
        <mxCell id="tzLTHpR25w6ST0jcA7H6-6" value="Home" style="text;html=1;strokeColor=none;fillColor=none;align=center;verticalAlign=middle;whiteSpace=wrap;rounded=0;" vertex="1" parent="tzLTHpR25w6ST0jcA7H6-3">
          <mxGeometry x="170" y="150" width="60" height="30" as="geometry" />
        </mxCell>
        <mxCell id="tzLTHpR25w6ST0jcA7H6-10" value="Guest" style="text;html=1;strokeColor=none;fillColor=none;align=center;verticalAlign=middle;whiteSpace=wrap;rounded=0;" vertex="1" parent="1">
          <mxGeometry x="125" y="106" width="60" height="30" as="geometry" />
        </mxCell>
        <mxCell id="tzLTHpR25w6ST0jcA7H6-14" style="edgeStyle=orthogonalEdgeStyle;rounded=0;orthogonalLoop=1;jettySize=auto;html=1;" edge="1" parent="1" source="tzLTHpR25w6ST0jcA7H6-11" target="tzLTHpR25w6ST0jcA7H6-12">
          <mxGeometry relative="1" as="geometry" />
        </mxCell>
        <mxCell id="tzLTHpR25w6ST0jcA7H6-11" value="Actor" style="shape=umlActor;verticalLabelPosition=bottom;verticalAlign=top;html=1;outlineConnect=0;" vertex="1" parent="1">
          <mxGeometry x="155" y="530" width="30" height="60" as="geometry" />
        </mxCell>
        <mxCell id="tzLTHpR25w6ST0jcA7H6-15" style="edgeStyle=orthogonalEdgeStyle;rounded=0;orthogonalLoop=1;jettySize=auto;html=1;entryX=0;entryY=0.5;entryDx=0;entryDy=0;" edge="1" parent="1" source="tzLTHpR25w6ST0jcA7H6-12" target="tzLTHpR25w6ST0jcA7H6-13">
          <mxGeometry relative="1" as="geometry" />
        </mxCell>
        <mxCell id="tzLTHpR25w6ST0jcA7H6-12" value="Register" style="rounded=0;whiteSpace=wrap;html=1;" vertex="1" parent="1">
          <mxGeometry x="380" y="530" width="120" height="60" as="geometry" />
        </mxCell>
        <mxCell id="tzLTHpR25w6ST0jcA7H6-13" value="Login" style="rounded=0;whiteSpace=wrap;html=1;" vertex="1" parent="1">
          <mxGeometry x="700" y="530" width="120" height="60" as="geometry" />
        </mxCell>
        <mxCell id="tzLTHpR25w6ST0jcA7H6-18" style="edgeStyle=orthogonalEdgeStyle;rounded=0;orthogonalLoop=1;jettySize=auto;html=1;entryX=0;entryY=0.5;entryDx=0;entryDy=0;" edge="1" parent="1" source="tzLTHpR25w6ST0jcA7H6-16" target="tzLTHpR25w6ST0jcA7H6-17">
          <mxGeometry relative="1" as="geometry" />
        </mxCell>
        <mxCell id="tzLTHpR25w6ST0jcA7H6-16" value="Actor" style="shape=umlActor;verticalLabelPosition=bottom;verticalAlign=top;html=1;outlineConnect=0;" vertex="1" parent="1">
          <mxGeometry x="155" y="720" width="30" height="60" as="geometry" />
        </mxCell>
        <mxCell id="tzLTHpR25w6ST0jcA7H6-20" style="edgeStyle=orthogonalEdgeStyle;rounded=0;orthogonalLoop=1;jettySize=auto;html=1;entryX=0.5;entryY=0;entryDx=0;entryDy=0;" edge="1" parent="1" source="tzLTHpR25w6ST0jcA7H6-17" target="tzLTHpR25w6ST0jcA7H6-19">
          <mxGeometry relative="1" as="geometry" />
        </mxCell>
        <mxCell id="tzLTHpR25w6ST0jcA7H6-17" value="Login" style="rounded=0;whiteSpace=wrap;html=1;" vertex="1" parent="1">
          <mxGeometry x="400" y="720" width="120" height="60" as="geometry" />
        </mxCell>
        <mxCell id="tzLTHpR25w6ST0jcA7H6-24" style="edgeStyle=orthogonalEdgeStyle;rounded=0;orthogonalLoop=1;jettySize=auto;html=1;" edge="1" parent="1" source="tzLTHpR25w6ST0jcA7H6-19">
          <mxGeometry relative="1" as="geometry">
            <mxPoint x="320" y="1080" as="targetPoint" />
          </mxGeometry>
        </mxCell>
        <mxCell id="tzLTHpR25w6ST0jcA7H6-25" style="edgeStyle=orthogonalEdgeStyle;rounded=0;orthogonalLoop=1;jettySize=auto;html=1;entryX=0.5;entryY=0;entryDx=0;entryDy=0;" edge="1" parent="1" source="tzLTHpR25w6ST0jcA7H6-19" target="tzLTHpR25w6ST0jcA7H6-23">
          <mxGeometry relative="1" as="geometry" />
        </mxCell>
        <mxCell id="tzLTHpR25w6ST0jcA7H6-19" value="is Admin?" style="shape=rhombus;perimeter=rhombusPerimeter;whiteSpace=wrap;html=1;align=center;" vertex="1" parent="1">
          <mxGeometry x="400" y="870" width="120" height="60" as="geometry" />
        </mxCell>
        <mxCell id="tzLTHpR25w6ST0jcA7H6-22" value="Admin Panel" style="rounded=0;whiteSpace=wrap;html=1;" vertex="1" parent="1">
          <mxGeometry x="280" y="1090" width="120" height="60" as="geometry" />
        </mxCell>
        <mxCell id="tzLTHpR25w6ST0jcA7H6-23" value="Home" style="rounded=0;whiteSpace=wrap;html=1;" vertex="1" parent="1">
          <mxGeometry x="540" y="1090" width="120" height="60" as="geometry" />
        </mxCell>
        <mxCell id="tzLTHpR25w6ST0jcA7H6-29" style="edgeStyle=orthogonalEdgeStyle;rounded=0;orthogonalLoop=1;jettySize=auto;html=1;" edge="1" parent="1" source="tzLTHpR25w6ST0jcA7H6-26" target="tzLTHpR25w6ST0jcA7H6-27">
          <mxGeometry relative="1" as="geometry" />
        </mxCell>
        <mxCell id="tzLTHpR25w6ST0jcA7H6-26" value="Actor" style="shape=umlActor;verticalLabelPosition=bottom;verticalAlign=top;html=1;outlineConnect=0;" vertex="1" parent="1">
          <mxGeometry x="155" y="1370" width="30" height="60" as="geometry" />
        </mxCell>
        <mxCell id="tzLTHpR25w6ST0jcA7H6-30" style="edgeStyle=orthogonalEdgeStyle;rounded=0;orthogonalLoop=1;jettySize=auto;html=1;entryX=0;entryY=0.5;entryDx=0;entryDy=0;" edge="1" parent="1" source="tzLTHpR25w6ST0jcA7H6-27" target="tzLTHpR25w6ST0jcA7H6-28">
          <mxGeometry relative="1" as="geometry" />
        </mxCell>
        <mxCell id="tzLTHpR25w6ST0jcA7H6-27" value="Logout" style="rounded=0;whiteSpace=wrap;html=1;" vertex="1" parent="1">
          <mxGeometry x="380" y="1370" width="120" height="60" as="geometry" />
        </mxCell>
        <mxCell id="tzLTHpR25w6ST0jcA7H6-28" value="Home" style="rounded=0;whiteSpace=wrap;html=1;" vertex="1" parent="1">
          <mxGeometry x="690" y="1370" width="120" height="60" as="geometry" />
        </mxCell>
      </root>
    </mxGraphModel>
  </diagram>
</mxfile>
